<svg xmlns="http://www.w3.org/2000/svg" width="20.47" height="20.47" viewBox="0 0 20.47 20.47">
  <path id="Path_2994" data-name="Path 2994" d="M20.423,2H4.047A2.053,2.053,0,0,0,2,4.047V20.423A2.053,2.053,0,0,0,4.047,22.47H20.423a2.053,2.053,0,0,0,2.047-2.047V4.047A2.053,2.053,0,0,0,20.423,2ZM18.069,9.472C17.967,14.18,15,17.455,10.5,17.66a7.45,7.45,0,0,1-4.4-1.228,5.434,5.434,0,0,0,3.992-1.126,2.765,2.765,0,0,1-2.559-1.945,4.128,4.128,0,0,0,1.126,0A2.788,2.788,0,0,1,6.5,10.6a2.063,2.063,0,0,0,1.126.307A3.026,3.026,0,0,1,6.81,7.22a8.11,8.11,0,0,0,5.629,2.866c-.716-2.866,3.173-4.4,4.708-2.456a6.9,6.9,0,0,0,1.74-.614A2.894,2.894,0,0,1,17.762,8.55a5.867,5.867,0,0,0,1.433-.409C19.092,8.653,18.581,9.062,18.069,9.472Z" transform="translate(-2 -2)"/>
</svg>
