<svg id="Group_2876" data-name="Group 2876" xmlns="http://www.w3.org/2000/svg" width="24.368" height="20.47" viewBox="0 0 24.368 20.47">
  <path id="Fill-53" d="M35.5,3.8a.076.076,0,0,0-.014-.011l-.008,0L28.125.136a.765.765,0,0,0-.155-.055.822.822,0,0,0-.2-.027.843.843,0,0,0-.713.385L22.823,7.265l5.311,8.566L35.521,3.916A.088.088,0,0,0,35.5,3.8" transform="translate(-11.205 -0.054)" fill-rule="evenodd"/>
  <path id="Fill-54" d="M18.29,11.053v7.77l6.958,3.453L18.29,11.053" transform="translate(-9.003 -5.398)" fill-rule="evenodd"/>
  <path id="Fill-55" d="M33.855,23.1l5.728,2.842c.745.37,1.35.111,1.35-.578V11.689L33.855,23.1" transform="translate(-16.565 -5.707)" fill-rule="evenodd"/>
  <path id="Fill-56" d="M8.308,3.9,1.128.341A.829.829,0,0,0,.764.246C.449.246.229.488.229.893V16.277A1.329,1.329,0,0,0,.9,17.361L7.227,20.5a1.034,1.034,0,0,0,.456.119c.393,0,.669-.3.669-.808V3.974a.078.078,0,0,0-.044-.07" transform="translate(-0.229 -0.147)" fill-rule="evenodd"/>
</svg>
