<svg xmlns="http://www.w3.org/2000/svg" width="22.517" height="20.47" viewBox="0 0 22.517 20.47">
  <path id="LinkedIn" d="M724.517,285.47h-4.977v-7.2c0-1.884-.778-3.169-2.49-3.169a2.511,2.511,0,0,0-2.376,1.7,3.162,3.162,0,0,0-.107,1.136v7.525h-4.93s.063-12.747,0-13.906h4.93v2.182c.291-.954,1.867-2.316,4.381-2.316,3.119,0,5.57,2,5.57,6.307v7.732Zm-19.867-15.645h-.032a2.426,2.426,0,0,1-2.619-2.41,2.677,2.677,0,1,1,2.65,2.41Zm-2.082,1.739h4.389V285.47h-4.389V271.564Z" transform="translate(-702 -265)" fill-rule="evenodd"/>
</svg>
