<svg xmlns="http://www.w3.org/2000/svg" width="20.47" height="20.47" viewBox="0 0 20.47 20.47">
  <path id="Facebook" d="M210.934,180.47h-9.8a1.13,1.13,0,0,1-1.13-1.13V161.13a1.13,1.13,0,0,1,1.13-1.13h18.21a1.13,1.13,0,0,1,1.13,1.13v18.21a1.13,1.13,0,0,1-1.13,1.13h-5.216v-7.927h2.661l.4-3.089h-3.059v-1.972c0-.894.248-1.5,1.531-1.5h1.636v-2.763a21.85,21.85,0,0,0-2.384-.122,3.722,3.722,0,0,0-3.973,4.084v2.278h-2.668v3.089h2.668v7.927Z" transform="translate(-200 -160)" fill-rule="evenodd"/>
</svg>
