<svg xmlns="http://www.w3.org/2000/svg" width="183.566" height="60.389" viewBox="0 0 183.566 60.389">
  <g id="Group_6559" data-name="Group 6559" transform="translate(-963 -31)">
    <path id="Path_5483" data-name="Path 5483" d="M55.571,56.828h4.214L59.191,44,42.6,56.828h5.956L24.6,82.624H39.3L24,104.389H49.751L59.42,73H48.652Z" transform="translate(939 -13)" fill="#ffea07"/>
    <path id="Path_5484" data-name="Path 5484" d="M233.587,127.988c-5.031-.186-8.954,2.183-9.879,7.03-1.666,8.622,9.288,8.1,8.584,11.73a2.41,2.41,0,0,1-2.738,2c-1.258-.036-2.443-.777-1.849-2.738h-6.552c-1.072,5.329,2.221,8.622,7.4,8.88,5.291.26,9.323-1.961,10.324-7.1,1.776-9.1-9.583-7.993-8.732-11.913a2.248,2.248,0,0,1,2.479-1.775,1.706,1.706,0,0,1,1.628,2.478h6.437c1.113-5.107-2.107-8.4-7.1-8.584Zm9.064,11.284h1.961l-1.666,7.586c-1.146,5.476.555,8.546,7.66,7.843l1.184-5.55c-2.3.408-3.034-.186-2.738-1.592l1.814-8.289H253.9l1.22-5.55h-3.072l.925-4.33h-4.33c-.739,3.515-1.775,4.7-4.848,4.7l-1.144,5.183Zm26.421-5.772c-3.885-.481-5.329,2.035-5.329,2.035l.369-1.814h-5.884l-4.44,20.8h6.254l2.3-10.841c.7-3.294,2.479-4.33,5.439-4.032,0,0,1.332-6.144,1.3-6.144Zm-.963,28.3h6.254l13.69-28.083h-6.735l-4.662,11.248.112-11.248h-6.4l1.258,20.8-3.515,7.288Zm20.017-22.533h1.962l-1.666,7.586c-1.146,5.476.555,8.546,7.66,7.843l1.185-5.55c-2.3.408-3.034-.186-2.738-1.592l1.814-8.289h3.034l1.22-5.55h-3.072l.925-4.33h-4.328c-.741,3.515-1.776,4.7-4.848,4.7l-1.146,5.183Zm21.425,8.658-.112.517a1.84,1.84,0,0,1-1.923,1.406c-.7,0-1.518-.334-1.22-1.666l.443-2.183h9.435l1.037-4.552c1.073-5.069-1.628-7.991-6.549-7.991-5.329,0-8.067,2.812-9.252,8.215l-1.072,5.107c-1.037,4.957,1.516,8.1,6.475,8.1,5.365,0,8.029-2.7,8.918-6.809l.036-.148Zm-1.592-7.659a1.911,1.911,0,0,1,2-1.7c.7,0,1.516.3,1.22,1.7l-.3,1.48h-3.22l.3-1.48Zm18.537.7a1.948,1.948,0,0,1,2-1.74c.667,0,1.48.334,1.184,1.74l-1.332,6.327a1.961,1.961,0,0,1-1.962,1.74c-.7,0-1.518-.334-1.22-1.74l1.332-6.327Zm-.109,15.319a1.726,1.726,0,0,1-1.85,1.48c-.925,0-1.518-.369-1.294-1.406h-6c-.739,3.255.629,6.18,6.587,6.18,6.068,0,7.993-2.369,9.1-7.659l4.552-21.165h-5.846l-.408,1.775a4.932,4.932,0,0,0-4.144-2.035c-3.663,0-5.513,1.48-6.809,7.214l-1.48,6.918c-1.146,5.4,1.146,7.216,4.478,7.216a4.144,4.144,0,0,0,3.849-2.035l-.741,3.518Zm11.246,5.512h6.254l13.692-28.083h-6.735l-4.661,11.248.112-11.248h-6.4l1.259,20.8-3.518,7.288Z" transform="translate(788.988 -76.964)"/>
  </g>
</svg>
